HIERARCHY
ROOT Hips
{
 OFFSET 0.000000 0.000000 0.000000
 CHANNELS 6 Xposition Yposition Zposition Yrotation Xrotation Zrotation
 JOINT Chest
 {
  OFFSET 0.000000 11.395451 -0.039534
  CHANNELS 3 Yrotation Xrotation Zrotation
  JOINT Chest2
  {
   OFFSET 0.000000 9.398669 0.071813
   CHANNELS 3 Yrotation Xrotation Zrotation
   JOINT Chest3
   {
    OFFSET 0.000000 8.489801 0.000000
    CHANNELS 3 Yrotation Xrotation Zrotation
    JOINT Chest4
    {
     OFFSET 0.000000 8.489801 0.000000
     CHANNELS 3 Yrotation Xrotation Zrotation
     JOINT Neck
     {
      OFFSET 0.000000 12.404889 0.000000
      CHANNELS 3 Yrotation Xrotation Zrotation
      JOINT Head
      {
       OFFSET 0.000000 8.903270 0.092239
       CHANNELS 3 Yrotation Xrotation Zrotation
       End Site
       {
        OFFSET 0.000000 17.592497 0.007158
       }
      }
     }
     JOINT RightCollar
     {
      OFFSET -3.196775 6.966722 0.000000
      CHANNELS 3 Yrotation Xrotation Zrotation
      JOINT RightShoulder
      {
       OFFSET -15.955896 0.000000 0.000000
       CHANNELS 3 Yrotation Xrotation Zrotation
       JOINT RightElbow
       {
        OFFSET -24.792472 0.000000 0.000000
        CHANNELS 3 Yrotation Xrotation Zrotation
        JOINT RightWrist
        {
         OFFSET -20.900115 0.000000 0.025002
         CHANNELS 3 Yrotation Xrotation Zrotation
         End Site
         {
          OFFSET -16.056692 0.000000 0.000000
         }
        }
       }
      }
     }
     JOINT LeftCollar
     {
      OFFSET 3.196775 6.966722 0.000000
      CHANNELS 3 Yrotation Xrotation Zrotation
      JOINT LeftShoulder
      {
       OFFSET 15.955896 0.000000 0.000000
       CHANNELS 3 Yrotation Xrotation Zrotation
       JOINT LeftElbow
       {
        OFFSET 24.792472 0.000000 0.000000
        CHANNELS 3 Yrotation Xrotation Zrotation
        JOINT LeftWrist
        {
         OFFSET 20.900115 0.000000 0.025002
         CHANNELS 3 Yrotation Xrotation Zrotation
         End Site
         {
          OFFSET 16.056692 0.000000 0.000000
         }
        }
       }
      }
     }
    }
   }
  }
 }
 JOINT RightHip
 {
  OFFSET -9.568995 0.193718 0.019767
  CHANNELS 3 Yrotation Xrotation Zrotation
  JOINT RightKnee
  {
   OFFSET 0.000000 -56.649296 0.015402
   CHANNELS 3 Yrotation Xrotation Zrotation
   JOINT RightAnkle
   {
    OFFSET 0.000000 -41.365147 0.021264
    CHANNELS 3 Yrotation Xrotation Zrotation
    JOINT RightToe
    {
     OFFSET 0.000000 -7.465940 17.672538
     CHANNELS 3 Yrotation Xrotation Zrotation
     End Site
     {
      OFFSET 0.000000 -1.736315 7.837145
     }
    }
   }
  }
 }
 JOINT LeftHip
 {
  OFFSET 9.568995 0.193718 0.019767
  CHANNELS 3 Yrotation Xrotation Zrotation
  JOINT LeftKnee
  {
   OFFSET 0.000000 -56.649296 0.015402
   CHANNELS 3 Yrotation Xrotation Zrotation
   JOINT LeftAnkle
   {
    OFFSET 0.000000 -41.365147 0.021264
    CHANNELS 3 Yrotation Xrotation Zrotation
    JOINT LeftToe
    {
     OFFSET 0.000000 -7.465940 17.672538
     CHANNELS 3 Yrotation Xrotation Zrotation
     End Site
     {
      OFFSET 0.000000 -1.736315 7.837145
     }
    }
   }
  }
 }
}
MOTION
Frames: 15
Frame Time: 0.016667
27.317559 105.171608 142.875136 136.067429 12.436998 -6.083049 -3.816793 5.584844 1.565067 -1.713133 2.469237 0.740708 -1.713133 2.469237 0.740708 -1.287647 1.849872 0.562375 -12.347562 8.129420 5.709176 -26.915060 -18.502507 17.026742 -5.625455 3.043534 3.598120 9.279071 -13.799417 44.308111 51.049274 -44.463297 31.373177 -7.670915 -21.799203 14.667606 5.105043 3.863910 -5.330741 -9.999081 -25.829594 -33.879270 -26.893125 -58.546771 -70.477520 22.008493 -15.629733 3.062747 -4.500445 -28.279328 3.369164 -1.467034 10.704749 -1.832469 11.589795 2.176768 20.023356 0.000000 -0.000000 0.000000 29.944501 -30.821263 -6.510681 -2.977323 19.822074 0.052238 2.947290 -5.344225 5.519281 0.000000 0.000000 0.000000
26.701915 105.259848 142.881197 134.529464 12.866519 -6.549949 -4.038907 5.690292 1.733110 -1.814073 2.513892 0.818867 -1.814078 2.513897 0.818871 -1.363716 1.883020 0.621530 -12.438007 7.985433 5.892033 -27.214800 -18.683147 17.463500 -5.693854 3.085557 3.492894 8.852202 -14.150259 44.793740 51.652266 -44.560118 31.094156 -8.015175 -21.637834 14.894907 5.019909 4.365024 -5.293231 -10.161677 -26.665910 -33.252906 -26.255164 -58.752811 -71.418968 22.004571 -15.636785 3.192824 -3.884009 -28.540079 3.235401 -0.775060 9.699511 -1.344784 11.329592 1.410244 21.251512 0.000000 0.000000 0.000000 30.315377 -31.327203 -6.358125 -2.087321 19.409771 -0.044069 3.057069 -5.058429 5.723006 0.000000 0.000000 0.000000
26.088776 105.335781 142.889387 132.951230 13.261566 -7.020032 -4.252988 5.801449 1.895861 -1.911473 2.561001 0.894714 -1.911486 2.561009 0.894718 -1.437139 1.917993 0.678952 -12.509284 7.845418 6.038003 -27.461269 -18.872283 17.821332 -5.779740 3.088548 3.389264 8.486348 -14.392407 45.334674 52.387707 -44.691447 30.635632 -8.428566 -21.450012 15.167423 4.949756 4.849771 -5.262286 -10.362761 -27.460657 -32.531308 -25.515138 -58.918161 -72.437544 21.992600 -15.667786 3.258223 -3.233431 -28.767014 3.055914 0.100079 8.835631 -0.801277 10.566330 0.237150 22.030944 -0.000000 0.000000 0.000000 30.506517 -31.863127 -6.113596 -1.203981 19.081295 -0.146307 3.374479 -4.824411 5.893744 -0.000000 -0.000000 0.000000
25.523788 105.410685 142.905760 131.336670 13.551375 -7.518912 -4.441722 5.929328 2.057725 -1.997699 2.615501 0.970087 -1.997699 2.615501 0.970087 -1.502172 1.958486 0.736003 -12.551665 7.730095 6.127736 -27.621242 -19.040123 18.051284 -5.834470 3.155966 3.299497 8.069231 -14.728943 45.910530 53.001784 -44.766254 30.257600 -8.827857 -21.242445 15.407076 4.860882 5.254851 -5.246056 -10.592145 -28.109733 -31.799330 -24.854449 -59.093319 -73.323001 21.995051 -15.717965 3.293403 -2.537018 -28.857636 2.996179 0.734987 8.347340 -0.393461 9.279261 -0.781322 21.922802 0.000000 0.000000 0.000000 30.836336 -32.350794 -5.850453 -0.456640 18.846824 -0.222679 3.725597 -4.655549 6.037697 0.000000 0.000000 0.000000
25.034930 105.493041 142.934265 129.680271 13.697981 -8.078020 -4.593840 6.093165 2.230570 -2.067993 2.685914 1.050300 -2.067957 2.685906 1.050298 -1.555285 2.010905 0.796681 -12.563338 7.632896 6.142233 -27.682965 -19.206793 18.117853 -5.827227 3.394570 3.208783 7.516729 -15.326367 46.579746 53.434211 -44.729588 30.012855 -9.199760 -21.000286 15.588374 4.731422 5.558197 -5.238186 -10.858843 -28.565851 -31.074947 -24.345674 -59.316477 -73.995523 22.019805 -15.799689 3.299991 -1.689689 -28.740847 3.134207 1.069805 8.315673 -0.190568 7.126849 -1.485946 20.481402 0.000000 0.000000 -0.000000 31.457165 -32.773254 -5.590531 0.050280 18.733793 -0.266301 4.071420 -4.570613 6.159715 0.000000 0.000000 -0.000000
24.594221 105.574368 142.970953 127.992588 13.735628 -8.655647 -4.721305 6.274010 2.398883 -2.127517 2.763963 1.128428 -2.127475 2.763959 1.128428 -1.600384 2.069078 0.855795 -12.549141 7.554347 6.096699 -27.661359 -19.366767 18.051996 -5.792205 3.699660 3.120370 6.908326 -16.013253 47.310142 53.753473 -44.629574 29.836047 -9.553286 -20.738852 15.737271 4.586435 5.780551 -5.235361 -11.149986 -28.876868 -30.358024 -23.910445 -59.549495 -74.535039 22.056383 -15.899116 3.274098 -0.788836 -28.484501 3.385163 1.183752 8.671208 -0.118639 4.468250 -2.175509 18.219931 -0.000000 0.000000 -0.000000 32.219961 -33.150105 -5.322281 0.422469 18.718171 -0.283795 4.449841 -4.550098 6.254151 0.000000 0.000000 0.000000
24.163373 105.640502 143.010036 126.302420 13.704947 -9.166039 -4.842538 6.423924 2.527462 -2.183790 2.828628 1.188605 -2.183790 2.828628 1.188605 -1.643022 2.117267 0.901401 -12.510115 7.526400 6.020221 -27.562077 -19.451506 17.898394 -5.774943 3.860090 3.078441 6.376905 -16.498309 47.933703 53.893085 -44.521646 29.805005 -9.841584 -20.515630 15.858734 4.463877 5.922151 -5.246982 -11.425530 -29.090277 -29.711238 -23.496233 -59.728417 -74.973524 22.102887 -15.975659 3.242809 -0.127198 -28.188869 3.671063 0.870238 9.436766 -0.149330 2.346691 -2.918479 16.124999 0.000000 0.000000 0.000000 32.996233 -33.459853 -5.078802 0.845111 18.734204 -0.265192 4.802600 -4.548591 6.310779 0.000000 0.000000 0.000000
23.727441 105.684176 143.059824 124.638968 13.623967 -9.582957 -4.972236 6.521099 2.606818 -2.242904 2.870285 1.226603 -2.242918 2.870302 1.226605 -1.687618 2.148282 0.930320 -12.444386 7.580236 5.902100 -27.366138 -19.408174 17.624610 -5.793698 3.778256 3.136389 5.959196 -16.690250 48.340049 53.768639 -44.403311 30.002710 -10.044896 -20.360922 15.952772 4.371853 6.001080 -5.261780 -11.711885 -29.232302 -29.130311 -23.065214 -59.851793 -75.311337 22.162488 -16.015376 3.209190 0.194092 -27.907311 4.010078 -0.222042 10.733242 -0.385065 1.215962 -3.686202 14.499838 0.000000 -0.000000 0.000000 33.745139 -33.710000 -4.875932 1.405898 18.776277 -0.188611 5.070547 -4.551743 6.316584 0.000000 0.000000 0.000000
23.301368 105.712657 143.112008 122.975373 13.481418 -9.927360 -5.097145 6.583067 2.649780 -2.299175 2.896667 1.248075 -2.299165 2.896698 1.248079 -1.729929 2.167898 0.946783 -12.356730 7.682335 5.746882 -27.094348 -19.295110 17.253603 -5.822785 3.557979 3.258618 5.620476 -16.701494 48.600799 53.466590 -44.261594 30.332541 -10.188464 -20.250088 16.025579 4.305323 5.999460 -5.284075 -11.985324 -29.286317 -28.630394 -22.636923 -59.920464 -75.562542 22.233565 -16.032782 3.171683 0.276604 -27.576747 4.382079 -1.763231 12.428427 -0.801374 0.589591 -4.478893 13.030274 -0.000000 -0.000000 0.000000 34.507530 -33.892470 -4.697309 2.017599 18.849685 -0.075783 5.312727 -4.573355 6.284465 0.000000 0.000000 -0.000000
22.891691 105.733582 143.135865 121.255039 13.278055 -10.186186 -5.194119 6.619141 2.656637 -2.342478 2.912018 1.252870 -2.342478 2.912018 1.252870 -1.762463 2.179262 0.950637 -12.256403 7.771307 5.608340 -26.809412 -19.203491 16.914101 -5.838764 3.288189 3.361860 5.389298 -16.551000 48.798178 53.170305 -44.141488 30.610826 -10.296028 -20.159856 16.093061 4.283586 5.862541 -5.344441 -12.133536 -29.243828 -28.302460 -22.241904 -59.873999 -75.782811 22.309340 -16.031791 3.151839 0.129242 -27.124336 4.649013 -2.916466 14.184734 -1.149214 0.122929 -5.282718 11.728765 0.000000 -0.000000 0.000000 35.277614 -33.959595 -4.526468 2.602212 18.904379 0.017399 5.648345 -4.610514 6.243353 0.000000 0.000000 0.000000
22.504879 105.749146 143.106671 119.461754 13.003678 -10.338601 -5.259083 6.625121 2.620847 -2.370858 2.914699 1.237981 -2.370882 2.914691 1.237981 -1.783710 2.181260 0.939619 -12.140502 7.837128 5.507043 -26.519531 -19.145609 16.647604 -5.838702 2.931377 3.417146 5.319534 -16.142038 48.933844 52.920243 -44.065709 30.776842 -10.363064 -20.095984 16.169394 4.343582 5.471741 -5.469354 -12.110757 -29.046147 -28.209592 -21.860675 -59.645054 -76.001483 22.398533 -16.006769 3.160693 -0.265315 -26.502885 4.729859 -3.337923 15.954637 -1.301264 -0.244408 -6.089341 10.597724 0.000000 -0.000000 0.000000 36.114240 -33.854750 -4.396669 3.066822 18.908598 0.063157 6.132893 -4.666439 6.212707 -0.000000 -0.000000 0.000000
22.134463 105.757155 143.049151 117.612623 12.676063 -10.399135 -5.295830 6.601566 2.551303 -2.386040 2.904862 1.207401 -2.386049 2.904883 1.207403 -1.794911 2.174012 0.916725 -12.010560 7.892962 5.424379 -26.214711 -19.103196 16.414281 -5.822817 2.522519 3.458777 5.355090 -15.574663 48.990359 52.674875 -44.015173 30.894438 -10.396996 -20.055575 16.243244 4.457842 4.943983 -5.616658 -11.964828 -28.768175 -28.298344 -21.500473 -59.299732 -76.198720 22.494709 -15.965213 3.187687 -0.886889 -25.773529 4.682656 -3.343622 17.799107 -1.383005 -0.449874 -6.865918 9.602844 -0.000000 -0.000000 -0.000000 36.959082 -33.632256 -4.277690 3.503746 18.894661 0.088515 6.710986 -4.737522 6.172433 0.000000 0.000000 0.000000
21.767573 105.758659 143.006756 115.700493 12.336387 -10.409399 -5.293068 6.566288 2.470207 -2.383500 2.890084 1.170994 -2.383500 2.890084 1.170994 -1.792795 2.163046 0.889355 -11.880310 7.914015 5.359048 -25.927532 -19.118314 16.225465 -5.776935 2.255900 3.484737 5.361468 -15.155871 49.036552 52.490455 -43.981503 30.975797 -10.436112 -19.999942 16.289864 4.542029 4.577998 -5.724576 -11.723767 -28.600840 -28.477099 -21.240761 -58.976966 -76.347898 22.567733 -15.930052 3.222126 -1.670812 -25.028935 4.579394 -3.062368 19.561418 -1.459437 -0.639994 -7.555023 8.710407 0.000000 0.000000 0.000000 37.631573 -33.408063 -4.058980 4.112397 18.908303 0.118699 7.335548 -4.810528 6.092133 0.000000 0.000000 0.000000
21.400813 105.753089 142.991891 113.706851 11.996316 -10.380181 -5.235162 6.525014 2.382341 -2.356409 2.872973 1.130737 -2.356414 2.872932 1.130735 -1.772269 2.150361 0.858973 -11.750982 7.882811 5.315917 -25.667774 -19.221010 16.096386 -5.686490 2.263191 3.472993 5.285591 -15.041593 49.106325 52.388595 -43.979294 31.031788 -10.483293 -19.911013 16.293327 4.535319 4.560922 -5.774507 -11.361060 -28.703707 -28.733536 -21.149499 -58.710120 -76.410948 22.607283 -15.908754 3.262976 -2.666087 -24.290815 4.474828 -2.342772 21.208445 -1.543936 -0.848549 -8.131593 7.936997 -0.000000 -0.000000 0.000000 38.026639 -33.222299 -3.668470 5.062030 18.985002 0.165242 7.943930 -4.892252 5.956018 0.000000 0.000000 0.000000
21.037580 105.741015 142.992151 111.649703 11.648550 -10.298897 -5.137366 6.472024 2.283745 -2.311417 2.851051 1.085053 -2.311415 2.851030 1.085049 -1.738274 2.134200 0.824422 -11.619270 7.818664 5.293448 -25.422856 -19.377630 16.016188 -5.573186 2.411468 3.429266 5.183640 -15.076872 49.183291 52.343502 -43.997775 31.057553 -10.532218 -19.805469 16.268964 4.487178 4.706704 -5.805400 -10.901857 -28.918397 -29.070057 -21.162487 -58.462258 -76.420134 22.623231 -15.892558 3.312225 -3.823565 -23.549341 4.303977 -1.332697 22.759159 -1.613391 -1.032507 -8.605669 7.244784 0.000000 0.000000 -0.000000 38.250651 -33.024525 -3.182468 6.183497 19.087804 0.215654 8.598877 -4.974909 5.779470 0.000000 -0.000000 0.000000
